Coordinates
version=1
nRows=23
nColumns=38
inDegrees=no

Units are S.I. units (second, meters, Newtons, ...)
If the header above contains a line with 'inDegrees', this indicates whether rotational values are in degrees (yes) or radians (no).

endheader
time	pelvis_tilt	pelvis_list	pelvis_rotation	pelvis_tx	pelvis_ty	pelvis_tz	hip_flexion_r	hip_adduction_r	hip_rotation_r	knee_angle_r	ankle_angle_r	subtalar_angle_r	mtp_angle_r	hip_flexion_l	hip_adduction_l	hip_rotation_l	knee_angle_l	ankle_angle_l	subtalar_angle_l	mtp_angle_l	lumbar_extension	lumbar_bending	lumbar_rotation	arm_flex_r	arm_add_r	arm_rot_r	elbow_flex_r	pro_sup_r	wrist_flex_r	wrist_dev_r	arm_flex_l	arm_add_l	arm_rot_l	elbow_flex_l	pro_sup_l	wrist_flex_l	wrist_dev_l
0.53	2.87311	1.5632	1.68602	0.68314	1.03423	0.94643	-0.165371	-0.00319602	-0.101007	0.227702	0.267517	0	0	0.411118	-0.0147314	-0.288439	0	0.131322	0	0	-0.127824	-0.0739251	0.0369451	-0.00831827	-0.105593	-0.100575	0.273012	1.30787	0	0	-0.220724	-0.450183	0.660249	0.62207	0.643993	0	0
0.54	2.72896	1.56378	1.83044	0.682279	1.02208	0.944462	-0.175613	-0.00157342	-0.0946595	0.240229	0.269328	0	0	0.421782	-0.0107231	-0.277749	0	0.139286	0	0	-0.130757	-0.0785265	0.0376935	-0.0103068	-0.10094	-0.100211	0.271546	1.30816	0	0	-0.224817	-0.451746	0.661392	0.621085	0.641556	0	0
0.55	2.6788	1.56251	1.87698	0.681908	1.00855	0.942604	-0.18275	-0.00702564	-0.0984986	0.255626	0.277021	0	0	0.425718	-0.00890401	-0.277314	0	0.148349	0	0	-0.129559	-0.0828017	0.0412341	-0.0127823	-0.0967087	-0.100071	0.269593	1.3081	0	0	-0.231025	-0.453122	0.662589	0.620634	0.637967	0	0
0.56	2.47153	1.56121	2.07775	0.681384	0.994366	0.94091	-0.189212	-0.0152285	-0.101785	0.274013	0.28468	0	0	0.426033	-0.00635686	-0.284208	0	0.153146	0	0	-0.127388	-0.0887195	0.047458	-0.0159807	-0.0930783	-0.0991833	0.267628	1.30855	0	0	-0.238333	-0.455064	0.664954	0.621638	0.634726	0	0
0.57	2.32076	1.56036	2.21883	0.680745	0.979834	0.939665	-0.196452	-0.0318788	-0.113529	0.292908	0.296878	0	0	0.423559	-0.00694867	-0.298305	0.00355796	0.156014	0	0	-0.124665	-0.0940363	0.056039	-0.0196782	-0.0906266	-0.0988161	0.267262	1.30861	0	0	-0.246494	-0.456894	0.667808	0.623353	0.63158	0	0
0.58	2.09319	1.55907	2.43974	0.679969	0.965647	0.938186	-0.199731	-0.0417644	-0.114148	0.320124	0.302576	0	0	0.445809	-0.013245	-0.325984	0.0720367	0.175286	0	0	-0.12215	-0.100795	0.0619405	-0.0343178	-0.0988504	0.00657508	0.287964	1.17915	0	0	-0.255817	-0.461221	0.673804	0.628039	0.619627	0	0
0.59	1.78419	1.55853	2.74191	0.679172	0.950719	0.936984	-0.206211	-0.0510782	-0.111264	0.345257	0.302161	0	0	0.458383	-0.0183757	-0.336299	0.132758	0.186863	0	0	-0.1207	-0.106813	0.0699342	-0.0400034	-0.0965288	-0.00112613	0.285842	1.19107	0	0	-0.265203	-0.463775	0.674935	0.630044	0.618018	0	0
0.6	2.02748	1.55813	2.4905	0.678239	0.935513	0.935162	-0.202935	-0.0569541	-0.103894	0.376877	0.299956	0	0	0.481544	-0.0314519	-0.353023	0.211182	0.211947	0	0	-0.111486	-0.108665	0.0815549	-0.0396541	-0.08703	-0.0996629	0.266663	1.32174	0	0	-0.274907	-0.468509	0.685842	0.635813	0.601119	0	0
0.61	2.09942	1.55707	2.41022	0.677537	0.919799	0.933462	-0.199002	-0.0650448	-0.095621	0.41221	0.294342	0	0	0.493683	-0.0387191	-0.354707	0.270852	0.230738	0	0	-0.101879	-0.111274	0.0900314	-0.0480795	-0.0890292	-0.0968968	0.265966	1.32491	0	0	-0.290281	-0.469384	0.681177	0.639204	0.598628	0	0
0.62	2.15679	1.55515	2.34505	0.677052	0.903721	0.931729	-0.191533	-0.0744961	-0.0868978	0.45299	0.285528	0	0	0.500494	-0.0416473	-0.350357	0.314908	0.242314	0	0	-0.09039	-0.114119	0.0958574	-0.0558906	-0.0922217	-0.0904247	0.263159	1.32819	0	0	-0.309319	-0.469043	0.671685	0.643015	0.594683	0	0
0.63	2.13442	1.55192	2.36085	0.676984	0.88756	0.930141	-0.179436	-0.0866653	-0.079241	0.500779	0.271367	0	0	0.499895	-0.0367499	-0.338273	0.334775	0.228995	0	0	-0.0787434	-0.118537	0.0974125	-0.0666686	-0.100098	-0.0450252	0.270877	1.27527	0	0	-0.330795	-0.466638	0.656646	0.645759	0.598892	0	0
0.64	2.16759	1.54618	2.32453	0.677446	0.871753	0.928552	-0.158304	-0.0996589	-0.0724281	0.557516	0.24939	0	0	0.501115	-0.0280431	-0.321836	0.344925	0.188417	0	0	-0.065996	-0.124143	0.0951651	-0.0726892	-0.103612	-0.0503705	0.271845	1.28974	0	0	-0.350848	-0.465228	0.64556	0.650366	0.594246	0	0
0.65	2.23085	1.53768	2.26405	0.678469	0.856647	0.927079	-0.127619	-0.112014	-0.0664356	0.62299	0.217488	0	0	0.513287	-0.0202616	-0.307066	0.369107	0.147507	0	0	-0.0528838	-0.131163	0.0868818	-0.0786156	-0.107077	-0.0514244	0.277013	1.30616	0	0	-0.368327	-0.465751	0.638366	0.656713	0.577607	0	0
0.66	2.27614	1.52676	2.22712	0.679852	0.842233	0.925926	-0.0885701	-0.123697	-0.0598345	0.69596	0.174137	0	0	0.535138	-0.0125261	-0.292519	0.412086	0.133001	0	0	-0.0404085	-0.139944	0.0762525	-0.0811834	-0.104903	-0.0985325	0.276869	1.37838	0	0	-0.377056	-0.474451	0.660814	0.667786	0.521801	0	0
0.67	2.25896	1.52278	2.2524	0.680961	0.827691	0.925331	-0.054411	-0.131191	-0.0494629	0.769409	0.121355	0	0	0.560885	-0.0213963	-0.313948	0.489229	0.147727	0	0	-0.0358521	-0.145475	0.0658993	-0.087927	-0.108572	-0.0916197	0.286367	1.37668	0	0	-0.385501	-0.480029	0.66836	0.675694	0.511697	0	0
0.68	2.07522	1.51723	2.44424	0.682042	0.81355	0.925822	-0.0235668	-0.146076	-0.0382691	0.842773	0.0636397	0	0	0.562738	-0.008167	-0.303565	0.524354	0.147023	0	0	-0.0384235	-0.158897	0.0561643	-0.0904194	-0.110425	-0.0847225	0.290361	1.37118	0	0	-0.38951	-0.487521	0.676247	0.682431	0.506878	0	0
0.69	1.89801	1.50622	2.628	0.682938	0.800052	0.926693	0.0114733	-0.164657	-0.0191834	0.91632	0.00215125	0	0	0.550389	0.0229882	-0.264954	0.525067	0.132335	0	0	-0.0413597	-0.177018	0.0483728	-0.0901257	-0.111688	-0.0725142	0.28981	1.36202	0	0	-0.391132	-0.496628	0.683538	0.689478	0.507065	0	0
0.7	1.7863	1.49986	2.74264	0.68352	0.786321	0.927369	0.0460043	-0.175796	-0.00144123	0.98482	-0.065549	0	0	0.540691	0.0322546	-0.270179	0.543323	0.128035	0	0	-0.0439463	-0.187379	0.0449639	-0.0908024	-0.115519	-0.0608575	0.289787	1.35441	0	0	-0.393403	-0.503486	0.687167	0.696508	0.511232	0	0
0.71	1.70747	1.49318	2.82331	0.684178	0.772884	0.928222	0.0817437	-0.185473	0.0148453	1.04799	-0.136941	0	0	0.525873	0.0409152	-0.28119	0.550588	0.126993	0	0	-0.045065	-0.196385	0.04256	-0.0913456	-0.120378	-0.0474314	0.290804	1.34465	0	0	-0.394976	-0.508672	0.687846	0.701854	0.517969	0	0
0.72	1.664	1.4874	2.86853	0.684911	0.759797	0.929237	0.118215	-0.192615	0.0296692	1.1043	-0.209393	0	0	0.509288	0.0486278	-0.292905	0.551623	0.13016	0	0	-0.0447273	-0.203256	0.0418468	-0.0840514	-0.117179	-0.117737	0.275385	1.43698	0	0	-0.393389	-0.514141	0.693637	0.706549	0.512234	0	0
0.73	1.63593	1.48278	2.89736	0.685623	0.747057	0.930384	0.154237	-0.196895	0.0448221	1.15466	-0.273958	0	0	0.491915	0.0556101	-0.30349	0.549403	0.135207	0	0	-0.0427977	-0.208415	0.0386405	-0.0938049	-0.131048	-0.0246476	0.297757	1.32652	0	0	-0.396306	-0.51455	0.682269	0.708076	0.529526	0	0
0.74	1.62489	1.47991	2.90946	0.6862	0.734585	0.931744	0.189858	-0.197245	0.0589378	1.20117	-0.315891	0	0	0.475821	0.061688	-0.309298	0.546751	0.139531	0	0	-0.0405355	-0.211522	0.03675	-0.090211	-0.130103	-0.0642959	0.29122	1.39012	0	0	-0.39745	-0.514436	0.668469	0.708513	0.548121	0	0
0.75	1.61343	1.47864	2.92338	0.686718	0.722295	0.933391	0.224806	-0.195013	0.0652793	1.24701	-0.326918	0	0	0.45979	0.0680825	-0.308376	0.544201	0.142979	0	0	-0.0388823	-0.213081	0.0320787	-0.0913858	-0.133843	-0.0539605	0.2975	1.38163	0	0	-0.399376	-0.514177	0.654052	0.710059	0.554052	0	0
